# xmcd CD database file
#
# Track frame offsets:
#	182
#	35082
#	69370
#	105707
#	141557
#	176357
#
# Disc length: 2827 seconds
#
# Revision: 0
# Processed by: cddbd v1.4PL0 Copyright (c) Steve Scherf et al.
# Submitted via: CDex 1.51
#
DISCID=530b0906
DTITLE=Gomer Edwin Evans - Sleepytime
DYEAR=1900
DGENRE=New Age
TTITLE0=Little train
TTITLE1=Red Baloon
TTITLE2=Carousel
TTITLE3=Sleepytime
TTITLE4=Sailing
TTITLE5=Storyland
EXTD=
EXTT0=
EXTT1=
EXTT2=
EXTT3=
EXTT4=
EXTT5=
PLAYORDER=
